<svg width="17" height="20" viewBox="0 0 17 20" fill="none" xmlns="http://www.w3.org/2000/svg">
<path d="M14.194 0.828204C13.5305 0.502532 10.1672 0.874517 7.74115 3.20083C3.92037 7.01686 4.01211 12.0424 4.01211 12.0424C4.01211 12.0424 3.88623 12.5598 3.3477 11.8096C2.1697 10.3089 2.7869 6.85506 2.85578 6.37353C2.95315 5.69636 2.5212 5.67558 2.341 5.90002C-1.91471 11.8093 1.92893 16.6487 4.44614 18.1847C7.39232 19.9823 13.2054 19.9817 15.5214 14.8811C18.4043 8.52885 15.025 1.23581 14.194 0.828204Z" fill="#79AC6A"/>
<path d="M14.127 6.4333C14.4224 4.45226 14.4242 2.54394 14.1814 0.824443C13.4956 0.507381 10.1543 0.886193 7.74037 3.20122C3.91959 7.01726 4.01132 12.0428 4.01132 12.0428C4.01132 12.0428 3.88545 12.5602 3.34691 11.81C2.16891 10.3093 2.78612 6.85546 2.85499 6.37393C2.95237 5.69676 2.52041 5.67597 2.34021 5.90041C-0.231913 9.47182 0.156102 12.6508 1.4199 14.9477C2.68488 16.3059 4.12443 17.1986 5.4577 17.3975C9.25769 17.9645 13.1384 13.0557 14.127 6.4333Z" fill="#CAE5C2"/>
<path d="M14.1274 6.43281C14.4228 4.45176 14.4245 2.54345 14.1817 0.82395C13.4959 0.506887 10.8344 1.60829 8.42024 3.92392C4.59946 7.73965 4.01165 12.0423 4.01165 12.0423C4.01165 12.0423 3.88577 12.5597 3.34724 11.8095C2.16924 10.3088 2.57418 7.7162 2.64335 7.23497C2.74102 6.5575 2.30877 6.53701 2.12857 6.76145C-0.44326 10.3329 0.156724 12.6506 1.42082 14.9472C2.6858 16.3054 4.12535 17.1981 5.45861 17.397C9.25802 17.964 13.1388 13.0552 14.1274 6.43281Z" fill="#99C08E"/>
</svg>
